<svg id="图层_1" data-name="图层 1" xmlns="http://www.w3.org/2000/svg" xmlns:xlink="http://www.w3.org/1999/xlink" viewBox="0 0 416.63 175.41"><defs><style>.cls-1{fill:#fff;}.cls-2{fill:url(#未命名的渐变_64);}.cls-3{fill:url(#未命名的渐变_14);}.cls-4{fill:#1a5ecc;}</style><linearGradient id="未命名的渐变_64" x1="47.66" y1="21.51" x2="46.21" y2="140.56" gradientUnits="userSpaceOnUse"><stop offset="0.15" stop-color="#0074e1" stop-opacity="0"/><stop offset="0.31" stop-color="#0074e1" stop-opacity="0.26"/><stop offset="0.49" stop-color="#0074e1" stop-opacity="0.52"/><stop offset="0.65" stop-color="#0074e1" stop-opacity="0.73"/><stop offset="0.8" stop-color="#0074e1" stop-opacity="0.88"/><stop offset="0.92" stop-color="#0074e1" stop-opacity="0.97"/><stop offset="1" stop-color="#0074e1"/></linearGradient><linearGradient id="未命名的渐变_14" x1="24.99" y1="161.24" x2="24.99" y2="56.54" gradientUnits="userSpaceOnUse"><stop offset="0" stop-color="#0074e1" stop-opacity="0"/><stop offset="0.19" stop-color="#0074e1" stop-opacity="0.23"/><stop offset="0.48" stop-color="#0074e1" stop-opacity="0.56"/><stop offset="0.72" stop-color="#0074e1" stop-opacity="0.8"/><stop offset="0.9" stop-color="#0074e1" stop-opacity="0.94"/><stop offset="1" stop-color="#0074e1"/></linearGradient></defs><polygon points="4.2 128.57 4.2 46.84 74.98 5.97 145.76 46.84 145.76 128.57 74.98 169.44 4.2 128.57"/><path class="cls-1" d="M75,7.7l69.28,40v80L75,167.7,5.7,127.7v-80L75,7.7m0-3.46-1.5.87L4.2,45.11,2.7,46v83.47l1.5.86,69.28,40,1.5.87,1.5-.87,69.28-40,1.5-.86V46l-1.5-.86-69.28-40L75,4.24Z"/><polygon class="cls-2" points="59.48 49.32 59.48 143.21 33.99 129.28 33.99 51.75 59.48 49.32"/><polygon class="cls-3" points="33.99 51.77 33.99 129.29 15.98 116.39 15.98 53.64 33.99 51.77"/><polygon class="cls-1" points="103.96 36.32 93.29 42.47 90.51 40.87 81.62 35.73 74.98 31.9 56.67 42.48 45.99 36.32 74.98 19.58 87.73 26.94 96.63 32.08 103.96 36.32"/><polygon class="cls-1" points="94.86 99.18 94.86 115.6 109.08 123.81 123.3 115.6 123.3 99.18 117.34 95.73 128.01 89.57 133.98 93.02 133.98 121.76 117.01 131.55 109.08 136.14 74.98 155.83 15.99 121.76 15.99 109.15 74.99 143.5 98.41 129.97 84.19 121.76 84.19 93.02 93.4 87.7 104.08 81.53 109.08 78.65 114.09 81.53 123.3 76.22 123.3 59.8 109.08 51.59 94.86 59.8 94.86 76.22 99.88 79.12 89.22 85.28 89.21 85.28 84.19 82.38 84.19 53.63 109.08 39.26 133.98 53.63 133.98 82.38 124.76 87.7 114.09 93.86 109.08 96.75 104.08 93.86 94.86 99.18"/><polygon class="cls-1" points="59.48 49.32 41.48 38.92 15.98 53.64 33.99 64.04 59.48 49.32"/><path class="cls-4" d="M242.12,107.05l0-30.07H213l0,6.27,19.47,0v5.61H212.67l0,18.23ZM222.3,94.86h10.19V101H222.3Z"/><polygon class="cls-4" points="175.08 61.41 175.11 107.07 205.02 107.05 205 99.2 184.77 99.22 184.77 61.39 175.08 61.41"/><path class="cls-4" d="M380.8,76.88v30.19l30.13,0,0-30.19Zm20.45,22.34H390.46V84.71h10.79Z"/><path class="cls-4" d="M317.26,76.86l-30.11,0v30.19l30.14,0Zm-9.65,22.36h-10.8V84.71h10.8Z"/><polygon class="cls-4" points="372.65 107.05 372.63 99.2 367.53 99.22 367.53 84.38 373.15 84.38 373.13 76.52 367.53 76.55 367.53 67.22 357.85 67.24 357.88 76.55 352.86 76.55 352.88 84.41 356.8 84.38 357.88 84.38 357.88 107.07 372.65 107.05"/><polygon class="cls-4" points="344.72 107.05 344.7 99.2 339.6 99.22 339.6 84.38 345.22 84.38 345.2 76.52 339.6 76.55 339.6 67.22 329.91 67.24 329.94 76.55 324.93 76.55 324.95 84.41 328.87 84.38 329.94 84.38 329.94 107.07 344.72 107.05"/><polygon class="cls-4" points="279.51 113.99 279.51 76.98 269.83 77 269.85 91.42 259.27 91.42 259.27 76.98 249.76 77 249.78 99.27 269.85 99.25 269.85 107.22 249.76 107.22 249.78 114.02 279.51 113.99"/></svg>