<svg id="图层_1" data-name="图层 1" xmlns="http://www.w3.org/2000/svg" xmlns:xlink="http://www.w3.org/1999/xlink" viewBox="0 0 401.61 144.14"><defs><style>.cls-1{fill:url(#未命名的渐变_64);}.cls-2{fill:url(#未命名的渐变_14);}</style><linearGradient id="未命名的渐变_64" x1="35" y1="5.88" x2="33.56" y2="124.92" gradientUnits="userSpaceOnUse"><stop offset="0.15" stop-color="#0074e1" stop-opacity="0"/><stop offset="0.31" stop-color="#0074e1" stop-opacity="0.26"/><stop offset="0.49" stop-color="#0074e1" stop-opacity="0.52"/><stop offset="0.65" stop-color="#0074e1" stop-opacity="0.73"/><stop offset="0.8" stop-color="#0074e1" stop-opacity="0.88"/><stop offset="0.92" stop-color="#0074e1" stop-opacity="0.97"/><stop offset="1" stop-color="#0074e1"/></linearGradient><linearGradient id="未命名的渐变_14" x1="12.33" y1="145.6" x2="12.33" y2="40.91" gradientUnits="userSpaceOnUse"><stop offset="0" stop-color="#0074e1" stop-opacity="0"/><stop offset="0.19" stop-color="#0074e1" stop-opacity="0.23"/><stop offset="0.48" stop-color="#0074e1" stop-opacity="0.56"/><stop offset="0.72" stop-color="#0074e1" stop-opacity="0.8"/><stop offset="0.9" stop-color="#0074e1" stop-opacity="0.94"/><stop offset="1" stop-color="#0074e1"/></linearGradient></defs><path d="M229.47,91.42l0-30.07h-29.1l0,6.26,19.48,0v5.62H200l0,18.23ZM209.64,79.23h10.2v6.11h-10.2Z"/><polygon points="162.43 45.78 162.46 91.44 192.37 91.42 192.35 83.57 172.12 83.59 172.12 45.76 162.43 45.78"/><path d="M368.14,61.25V91.44l30.14,0,0-30.2ZM388.6,83.59H377.8V69.08h10.8Z"/><path d="M304.61,61.22l-30.11,0V91.44l30.14,0ZM295,83.59H284.16V69.08H295Z"/><polygon points="360 91.42 359.98 83.57 354.88 83.59 354.88 68.74 360.5 68.74 360.48 60.89 354.88 60.91 354.88 51.59 345.2 51.6 345.22 60.91 340.21 60.91 340.23 68.77 344.15 68.74 345.22 68.74 345.22 91.44 360 91.42"/><polygon points="332.07 91.42 332.05 83.57 326.95 83.59 326.95 68.74 332.57 68.74 332.55 60.89 326.95 60.91 326.95 51.59 317.26 51.6 317.29 60.91 312.28 60.91 312.3 68.77 316.21 68.74 317.29 68.74 317.29 91.44 332.07 91.42"/><polygon points="266.86 98.36 266.86 61.35 257.18 61.37 257.2 75.79 246.62 75.79 246.62 61.35 237.11 61.37 237.13 83.64 257.2 83.61 257.2 91.58 237.11 91.58 237.13 98.38 266.86 98.36"/><polygon class="cls-1" points="46.83 33.69 46.83 127.57 21.34 113.64 21.34 36.12 46.83 33.69"/><polygon class="cls-2" points="21.34 36.13 21.34 113.66 3.33 100.75 3.33 38.01 21.34 36.13"/><polygon points="91.31 20.68 80.64 26.84 77.86 25.24 68.97 20.1 62.33 16.27 44.02 26.85 33.34 20.68 62.33 3.95 75.08 11.31 83.97 16.45 91.31 20.68"/><polygon points="82.21 83.54 82.21 99.97 96.43 108.18 110.65 99.97 110.65 83.54 104.69 80.1 115.36 73.94 121.33 77.39 121.33 106.13 104.36 115.92 96.43 120.5 62.33 140.19 3.34 106.13 3.34 93.52 62.34 127.87 85.76 114.34 71.54 106.13 71.54 77.39 80.75 72.06 91.43 65.9 96.43 63.02 101.44 65.9 110.65 60.59 110.65 44.16 96.43 35.95 82.21 44.16 82.21 60.59 87.23 63.48 76.56 69.65 76.55 69.65 71.54 66.75 71.54 38 96.43 23.63 121.33 38 121.33 66.75 112.11 72.06 101.44 78.23 96.43 81.11 91.43 78.23 82.21 83.54"/><polygon points="46.83 33.69 28.83 23.29 3.33 38.01 21.34 48.41 46.83 33.69"/></svg>