<svg id="图层_1" data-name="图层 1" xmlns="http://www.w3.org/2000/svg" xmlns:xlink="http://www.w3.org/1999/xlink" viewBox="0 0 181.93 204.84"><defs><style>.cls-1{fill:url(#未命名的渐变_64);}.cls-2{fill:url(#未命名的渐变_14);}</style><linearGradient id="未命名的渐变_64" x1="63.64" y1="5.26" x2="62.19" y2="124.31" gradientUnits="userSpaceOnUse"><stop offset="0.15" stop-color="#0074e1" stop-opacity="0"/><stop offset="0.31" stop-color="#0074e1" stop-opacity="0.26"/><stop offset="0.49" stop-color="#0074e1" stop-opacity="0.52"/><stop offset="0.65" stop-color="#0074e1" stop-opacity="0.73"/><stop offset="0.8" stop-color="#0074e1" stop-opacity="0.88"/><stop offset="0.92" stop-color="#0074e1" stop-opacity="0.97"/><stop offset="1" stop-color="#0074e1"/></linearGradient><linearGradient id="未命名的渐变_14" x1="40.97" y1="144.99" x2="40.97" y2="40.29" gradientUnits="userSpaceOnUse"><stop offset="0" stop-color="#0074e1" stop-opacity="0"/><stop offset="0.19" stop-color="#0074e1" stop-opacity="0.23"/><stop offset="0.48" stop-color="#0074e1" stop-opacity="0.56"/><stop offset="0.72" stop-color="#0074e1" stop-opacity="0.8"/><stop offset="0.9" stop-color="#0074e1" stop-opacity="0.94"/><stop offset="1" stop-color="#0074e1"/></linearGradient></defs><polygon class="cls-1" points="75.47 33.07 75.47 126.96 49.97 113.03 49.97 35.51 75.47 33.07"/><polygon class="cls-2" points="49.97 35.52 49.97 113.05 31.97 100.14 31.97 37.4 49.97 35.52"/><polygon points="119.94 20.07 109.27 26.22 106.5 24.62 97.6 19.48 90.96 15.65 72.66 26.23 61.98 20.07 90.96 3.33 103.72 10.7 112.61 15.84 119.94 20.07"/><polygon points="110.84 82.93 110.84 99.35 125.06 107.56 139.28 99.35 139.28 82.93 133.32 79.49 143.99 73.32 149.96 76.78 149.96 105.52 132.99 115.31 125.06 119.89 90.96 139.58 31.97 105.52 31.97 92.91 90.97 127.25 114.39 113.73 100.18 105.52 100.18 76.78 109.38 71.45 120.06 65.29 125.06 62.4 130.07 65.29 139.28 59.97 139.28 43.55 125.06 35.34 110.84 43.55 110.84 59.97 115.87 62.87 105.2 69.03 105.19 69.03 100.18 66.14 100.18 37.39 125.06 23.01 149.96 37.39 149.96 66.14 140.74 71.45 130.07 77.61 125.06 80.5 120.06 77.61 110.84 82.93"/><polygon points="75.47 33.07 57.46 22.67 31.97 37.4 49.97 47.8 75.47 33.07"/><path d="M53.15,196.34l0-22.35H31.51v4.66l14.47,0v4.17H31.26l0,13.55Zm-14.73-9.06H46v4.54H38.42Z"/><polygon points="3.33 162.42 3.35 196.35 25.58 196.34 25.57 190.5 10.53 190.52 10.53 162.41 3.33 162.42"/><path d="M156.2,173.92v22.43l22.39,0V173.9Zm15.2,16.6h-8V179.73h8Z"/><path d="M109,173.9l-22.38,0v22.43l22.39,0Zm-7.18,16.62h-8V179.73h8Z"/><polygon points="150.15 196.34 150.13 190.5 146.34 190.52 146.34 179.49 150.52 179.49 150.5 173.65 146.34 173.67 146.34 166.74 139.15 166.75 139.16 173.67 135.44 173.67 135.46 179.51 138.37 179.49 139.16 179.49 139.16 196.35 150.15 196.34"/><polygon points="129.39 196.34 129.38 190.5 125.58 190.52 125.58 179.49 129.76 179.49 129.74 173.65 125.58 173.67 125.58 166.74 118.39 166.75 118.41 173.67 114.68 173.67 114.7 179.51 117.61 179.49 118.41 179.49 118.41 196.35 129.39 196.34"/><polygon points="80.93 201.49 80.93 173.99 73.74 174.01 73.75 184.72 65.89 184.72 65.89 173.99 58.83 174.01 58.84 190.55 73.75 190.54 73.75 196.46 58.83 196.46 58.84 201.51 80.93 201.49"/></svg>