<svg id="图层_1" data-name="图层 1" xmlns="http://www.w3.org/2000/svg" xmlns:xlink="http://www.w3.org/1999/xlink" viewBox="0 0 181.93 216.72"><defs><style>.cls-1{fill:url(#未命名的渐变_64);}.cls-2{fill:url(#未命名的渐变_14);}.cls-3{fill:#fff;}.cls-4{fill:#1a5ecc;}</style><linearGradient id="未命名的渐变_64" x1="63.64" y1="17.14" x2="62.19" y2="136.19" gradientUnits="userSpaceOnUse"><stop offset="0.15" stop-color="#0074e1" stop-opacity="0"/><stop offset="0.31" stop-color="#0074e1" stop-opacity="0.26"/><stop offset="0.49" stop-color="#0074e1" stop-opacity="0.52"/><stop offset="0.65" stop-color="#0074e1" stop-opacity="0.73"/><stop offset="0.8" stop-color="#0074e1" stop-opacity="0.88"/><stop offset="0.92" stop-color="#0074e1" stop-opacity="0.97"/><stop offset="1" stop-color="#0074e1"/></linearGradient><linearGradient id="未命名的渐变_14" x1="40.97" y1="156.87" x2="40.97" y2="52.17" gradientUnits="userSpaceOnUse"><stop offset="0" stop-color="#0074e1" stop-opacity="0"/><stop offset="0.19" stop-color="#0074e1" stop-opacity="0.23"/><stop offset="0.48" stop-color="#0074e1" stop-opacity="0.56"/><stop offset="0.72" stop-color="#0074e1" stop-opacity="0.8"/><stop offset="0.9" stop-color="#0074e1" stop-opacity="0.94"/><stop offset="1" stop-color="#0074e1"/></linearGradient></defs><polygon points="160.25 123.33 160.25 43.34 90.96 3.33 21.68 43.34 21.68 123.33 90.96 163.34 160.25 123.33"/><polygon class="cls-1" points="75.47 44.95 75.47 138.84 49.97 124.91 49.97 47.38 75.47 44.95"/><polygon class="cls-2" points="49.97 47.4 49.97 124.92 31.97 112.02 31.97 49.27 49.97 47.4"/><polygon class="cls-3" points="119.94 31.95 109.27 38.1 106.5 36.5 97.6 31.36 90.96 27.53 72.66 38.11 61.98 31.95 90.96 15.21 103.72 22.57 112.61 27.71 119.94 31.95"/><polygon class="cls-3" points="110.84 94.81 110.84 111.23 125.06 119.44 139.28 111.23 139.28 94.81 133.32 91.36 143.99 85.2 149.96 88.65 149.96 117.39 132.99 127.18 125.06 131.77 90.96 151.46 31.97 117.39 31.97 104.78 90.97 139.13 114.39 125.6 100.18 117.39 100.18 88.65 109.38 83.33 120.06 77.17 125.06 74.28 130.07 77.17 139.28 71.85 139.28 55.43 125.06 47.22 110.84 55.43 110.84 71.85 115.87 74.75 105.2 80.91 105.19 80.91 100.18 78.02 100.18 49.27 125.06 34.89 149.96 49.27 149.96 78.02 140.74 83.33 130.07 89.49 125.06 92.38 120.06 89.49 110.84 94.81"/><polygon class="cls-3" points="75.47 44.95 57.46 34.55 31.97 49.27 49.97 59.67 75.47 44.95"/><path class="cls-4" d="M53.15,208.21l0-22.34H31.51v4.65H46v4.17H31.26l0,13.55Zm-14.73-9.05H46v4.54H38.42Z"/><polygon class="cls-4" points="3.33 174.3 3.35 208.23 25.58 208.21 25.57 202.38 10.53 202.4 10.53 174.28 3.33 174.3"/><path class="cls-4" d="M156.2,185.79v22.44l22.39,0V185.78Zm15.2,16.6h-8V191.61h8Z"/><path class="cls-4" d="M109,185.78H86.61v22.44l22.39,0Zm-7.18,16.61h-8V191.61h8Z"/><polygon class="cls-4" points="150.15 208.21 150.13 202.38 146.34 202.4 146.34 191.36 150.52 191.36 150.5 185.53 146.34 185.55 146.34 178.61 139.15 178.63 139.16 185.55 135.44 185.55 135.46 191.39 138.37 191.36 139.16 191.36 139.16 208.23 150.15 208.21"/><polygon class="cls-4" points="129.39 208.21 129.38 202.38 125.58 202.4 125.58 191.36 129.76 191.36 129.74 185.53 125.58 185.55 125.58 178.61 118.39 178.63 118.41 185.55 114.68 185.55 114.7 191.39 117.61 191.36 118.41 191.36 118.41 208.23 129.39 208.21"/><polygon class="cls-4" points="80.93 213.37 80.93 185.87 73.74 185.88 73.75 196.6 65.89 196.6 65.89 185.87 58.83 185.88 58.84 202.43 73.75 202.41 73.75 208.34 58.83 208.34 58.84 213.39 80.93 213.37"/></svg>