<svg id="图层_1" data-name="图层 1" xmlns="http://www.w3.org/2000/svg" xmlns:xlink="http://www.w3.org/1999/xlink" viewBox="0 0 412.84 166.67"><defs><style>.cls-1{fill:url(#未命名的渐变_64);}.cls-2{fill:url(#未命名的渐变_14);}.cls-3{fill:#fff;}.cls-4{fill:#1a5ecc;}</style><linearGradient id="未命名的渐变_64" x1="45.76" y1="17.14" x2="44.31" y2="136.19" gradientUnits="userSpaceOnUse"><stop offset="0.15" stop-color="#0074e1" stop-opacity="0"/><stop offset="0.31" stop-color="#0074e1" stop-opacity="0.26"/><stop offset="0.49" stop-color="#0074e1" stop-opacity="0.52"/><stop offset="0.65" stop-color="#0074e1" stop-opacity="0.73"/><stop offset="0.8" stop-color="#0074e1" stop-opacity="0.88"/><stop offset="0.92" stop-color="#0074e1" stop-opacity="0.97"/><stop offset="1" stop-color="#0074e1"/></linearGradient><linearGradient id="未命名的渐变_14" x1="23.09" y1="156.87" x2="23.09" y2="52.17" gradientUnits="userSpaceOnUse"><stop offset="0" stop-color="#0074e1" stop-opacity="0"/><stop offset="0.19" stop-color="#0074e1" stop-opacity="0.23"/><stop offset="0.48" stop-color="#0074e1" stop-opacity="0.56"/><stop offset="0.72" stop-color="#0074e1" stop-opacity="0.8"/><stop offset="0.9" stop-color="#0074e1" stop-opacity="0.94"/><stop offset="1" stop-color="#0074e1"/></linearGradient></defs><polygon points="142.37 123.33 142.37 43.34 73.08 3.33 3.8 43.34 3.8 123.33 73.08 163.34 142.37 123.33"/><polygon class="cls-1" points="57.59 44.95 57.59 138.84 32.09 124.91 32.09 47.38 57.59 44.95"/><polygon class="cls-2" points="32.09 47.4 32.09 124.92 14.09 112.02 14.09 49.27 32.09 47.4"/><polygon class="cls-3" points="102.06 31.95 91.39 38.1 88.61 36.5 79.72 31.36 73.08 27.53 54.78 38.11 44.1 31.95 73.08 15.21 85.84 22.57 94.73 27.71 102.06 31.95"/><polygon class="cls-3" points="92.97 94.81 92.97 111.23 107.18 119.44 121.4 111.23 121.4 94.81 115.44 91.36 126.11 85.2 132.08 88.65 132.08 117.39 115.11 127.18 107.18 131.77 73.08 151.46 14.09 117.39 14.09 104.78 73.09 139.13 96.51 125.6 82.3 117.39 82.3 88.65 91.5 83.33 102.18 77.17 107.18 74.28 112.2 77.17 121.4 71.85 121.4 55.43 107.18 47.22 92.97 55.43 92.97 71.85 97.99 74.75 87.32 80.91 87.31 80.91 82.3 78.02 82.3 49.27 107.18 34.89 132.08 49.27 132.08 78.02 122.86 83.33 112.2 89.49 107.18 92.38 102.18 89.49 92.97 94.81"/><polygon class="cls-3" points="57.59 44.95 39.58 34.55 14.09 49.27 32.09 59.67 57.59 44.95"/><path class="cls-4" d="M240.22,102.68l0-30.07H211.1l0,6.27,19.47,0v5.61H210.77l0,18.23ZM220.4,90.49h10.19V96.6H220.4Z"/><polygon class="cls-4" points="173.19 57.04 173.21 102.7 203.13 102.68 203.1 94.83 182.87 94.86 182.87 57.02 173.19 57.04"/><path class="cls-4" d="M378.9,72.51V102.7l30.14,0,0-30.19Zm20.46,22.34h-10.8V80.34h10.8Z"/><path class="cls-4" d="M315.37,72.49l-30.12,0V102.7l30.14,0Zm-9.66,22.36h-10.8V80.34h10.8Z"/><polygon class="cls-4" points="370.76 102.68 370.74 94.83 365.64 94.86 365.64 80.01 371.26 80.01 371.23 72.15 365.64 72.18 365.64 62.85 355.95 62.87 355.98 72.18 350.96 72.18 350.99 80.04 354.9 80.01 355.98 80.01 355.98 102.7 370.76 102.68"/><polygon class="cls-4" points="342.82 102.68 342.8 94.83 337.7 94.86 337.7 80.01 343.32 80.01 343.3 72.15 337.7 72.18 337.7 62.85 328.02 62.87 328.04 72.18 323.03 72.18 323.05 80.04 326.97 80.01 328.04 80.01 328.04 102.7 342.82 102.68"/><polygon class="cls-4" points="277.61 109.63 277.61 72.61 267.93 72.63 267.95 87.05 257.38 87.05 257.38 72.61 247.86 72.63 247.88 94.9 267.95 94.88 267.95 102.85 247.86 102.85 247.88 109.65 277.61 109.63"/></svg>